<svg width="187" height="187" viewBox="0 0 187 187" fill="none" xmlns="http://www.w3.org/2000/svg">
<g clip-path="url(#clip0_0_23)">
<path fill-rule="evenodd" clip-rule="evenodd" d="M115 116.166H74.6496L94.3809 95.3612L101.315 102.339L110.343 93.7979V79.3027H115V116.166ZM110.343 100.211V111.506H85.4891L94.4587 102.049L101.214 108.847L110.343 100.211Z" fill="#B4AB9E"/>
<path d="M85.3621 87.3843C87.8821 87.3843 89.925 85.3283 89.925 82.7921C89.925 80.2559 87.8821 78.1999 85.3621 78.1999C82.842 78.1999 80.7991 80.2559 80.7991 82.7921C80.7991 85.3283 82.842 87.3843 85.3621 87.3843Z" fill="#B4AB9E"/>
<path fill-rule="evenodd" clip-rule="evenodd" d="M73 71.8333H112.843L73 112.016V71.8333ZM77.1911 76.0272V101.835L102.781 76.0272H77.1911Z" fill="#B4AB9E"/>
<path d="M114.382 75.7435L111.279 79.1647L114.382 80.9786V75.7435Z" fill="#B4AB9E"/>
<path fill-rule="evenodd" clip-rule="evenodd" d="M114.965 74.235V81.9936L110.367 79.3053L114.965 74.235ZM112.194 79.0242L113.801 79.9638V77.2521L112.194 79.0242Z" fill="#B4AB9E"/>
</g>
<defs>
<clipPath id="clip0_0_23">
<rect width="56" height="56" fill="white" transform="translate(66 66)"/>
</clipPath>
</defs>
</svg>
